<?xml version="1.0" encoding="UTF-8"?>
<svg width="40" height="40" id="Livello_1" data-name="Livello 1" xmlns="http://www.w3.org/2000/svg" viewBox="0 0 307.63 175.01">
  <defs>
    <style>
      .cls-1 {
        fill: #f5b200;
      }

      .cls-2 {
        fill: #515151;
      }
    </style>
  </defs>
  <path class="cls-2" d="m246.66,113.79v-8.82c-1.42,1.68-7.12,8.82-19.78,8.82-14.95,0-31.6-10.22-31.6-35.7s15.52-38.5,32.31-38.5c5.84,0,14.37,2.1,19.07,7.84v-21.89h16.94v88.24h-16.94Zm-16.65-15.26c9.25,0,16.51-7.56,16.51-20.58,0-10.64-3.13-22.82-16.37-22.82-10.68,0-17.08,9.38-17.08,21.14,0,10.36,4.41,22.26,16.94,22.26Z"/>
  <path class="cls-1" d="m165.73,66.5l23.25-1.04-1.04-23.25-8,.36.2,4.43c-9.48-6.84-19.9-7.4-24.43-7.4-17.08,0-30.6,8.96-30.6,22.82,0,16.52,19.22,20.02,24.77,21l8.83,1.54c6.55,1.12,10.53,2.66,10.53,6.72,0,3.08-3.7,8.26-13.95,8.26-6.82,0-11.88-1.83-15.54-4.32l5.2.28.43-8-23.25-1.26-1.26,23.25,8,.43.19-3.55c5.78,3.56,14.58,7.02,27.08,7.02,19.64,0,32.03-11.06,32.03-23.94,0-11.34-8.26-17.64-19.07-19.6l-11.53-2.1c-10.25-1.82-14.52-3.22-14.52-7.84,0-6.3,8.54-7.28,11.81-7.28,5.86,0,11.19,1.66,15.18,5.26l-4.66.21.36,8Z"/>
  <path class="cls-2" d="m74.29,107.63c3.56,0,13.52-.42,21.49-7.42v6.16c0,8.79-3.65,13.02-9.55,14.66h23.93c1.66-3.49,2.56-7.73,2.56-12.84V39.54h-16.94v9.58c-3.99-5.74-10.96-9.52-20.07-9.52-15.23,0-32.17,10.22-32.17,34.72s15.8,33.32,30.74,33.32Zm4.27-53.05c11.81,0,17.65,8.96,17.65,19.88s-6.4,17.92-17.51,17.92-17.65-7.56-17.65-18.48c0-13.58,8.83-19.32,17.51-19.32Z"/>
  <g>
    <path class="cls-2" d="m56.73,139.02c-.25-.21-.52-.38-.8-.52-.47-.23-1.04-.34-1.7-.34-.72,0-1.38.15-1.95.44-.57.3-1.06.7-1.46,1.22-.39.51-.7,1.12-.9,1.81-.2.69-.31,1.44-.31,2.23,0,.89.09,1.69.28,2.37.19.69.46,1.28.81,1.76.36.48.8.85,1.3,1.1.5.25,1.07.37,1.69.37.77,0,1.45-.18,2.04-.53.42-.25.81-.56,1.17-.93l.1.69c.03.26.15.4.25.48.13.09.29.14.47.14h1.35v-15.7h-2.35v5.42Zm0,2.14v4.88c-.34.43-.7.78-1.08,1.02-.38.25-.84.37-1.37.37-.36,0-.68-.07-.96-.19-.27-.13-.5-.33-.69-.6-.2-.28-.35-.65-.46-1.1-.11-.46-.16-1.03-.16-1.68,0-1.22.24-2.16.7-2.81.45-.63,1.09-.93,1.93-.93.43,0,.82.08,1.16.25.32.15.63.42.92.8Z"/>
    <rect class="cls-2" x="70.17" y="138.34" width="2.35" height="10.96"/>
    <path class="cls-2" d="m72.41,134.21c-.14-.14-.31-.26-.49-.34-.38-.17-.83-.17-1.2,0-.18.09-.34.2-.48.35-.13.14-.24.31-.33.49-.08.19-.13.4-.13.62s.04.42.13.61c.08.19.19.35.33.49.14.14.3.25.48.34.19.09.39.13.6.13s.41-.04.6-.13c.18-.08.35-.2.49-.33.14-.14.26-.31.35-.5.08-.19.13-.4.13-.61s-.04-.43-.13-.62c-.08-.19-.2-.36-.34-.5Z"/>
    <path class="cls-2" d="m89.41,143.82c-.25-.22-.53-.41-.85-.56-.31-.15-.62-.28-.93-.38l-.9-.32c-.28-.1-.53-.21-.75-.33-.2-.11-.36-.24-.48-.39-.1-.13-.15-.3-.15-.51,0-.17.03-.33.1-.47.07-.15.16-.28.29-.39.13-.11.29-.2.47-.27.42-.15,1.01-.12,1.39,0,.23.08.41.15.57.24.16.09.3.17.42.24.44.28.87.17,1.08-.21l.51-.83-.13-.14c-.38-.41-.86-.73-1.41-.96-.55-.23-1.16-.34-1.82-.34-.59,0-1.12.09-1.57.26-.46.18-.86.42-1.17.72-.32.3-.56.66-.73,1.05-.17.4-.25.82-.25,1.26,0,.48.08.9.24,1.25.16.34.36.64.62.88.25.24.54.43.86.58.31.14.62.27.93.38.31.11.61.22.91.32.28.09.53.2.74.33.2.12.36.25.48.41.11.14.16.33.16.56,0,.2-.03.39-.1.56-.07.17-.16.32-.29.45-.13.13-.29.23-.49.31-.2.08-.45.12-.74.12-.34,0-.63-.04-.85-.13-.23-.09-.43-.19-.59-.3-.17-.11-.32-.22-.44-.31-.33-.25-.72-.24-.97-.08-.11.07-.2.17-.28.3l-.53.88.14.14c.4.4.9.73,1.49.97.58.25,1.24.37,1.94.37.62,0,1.18-.09,1.66-.27.49-.18.9-.44,1.24-.76.34-.32.59-.71.77-1.15.17-.44.26-.92.26-1.43,0-.46-.08-.85-.23-1.18-.15-.32-.36-.6-.61-.83Z"/>
    <path class="cls-2" d="m105.33,147.02c-.16-.12-.42-.14-.64.03l-.23.17c-.07.05-.17.1-.27.14-.1.04-.22.06-.37.06-.23,0-.41-.08-.56-.24-.15-.16-.22-.43-.22-.79v-5.98h2.81v-1.88h-2.81v-3.58h-1.2c-.18,0-.33.05-.45.16-.12.11-.19.25-.22.42l-.4,3.02-1.64.22v.97c0,.21.06.37.19.49.12.12.28.18.45.18h.91v6.11c0,.92.24,1.65.7,2.16.47.52,1.15.78,2.01.78.49,0,.97-.09,1.42-.26.45-.17.85-.43,1.19-.75l.15-.14-.64-1.06c-.05-.1-.11-.17-.18-.22Z"/>
    <path class="cls-2" d="m121.36,138.24c-.21-.05-.43-.08-.67-.08-.71,0-1.32.22-1.83.66-.3.26-.57.57-.8.95l-.06-.67c-.02-.25-.09-.43-.22-.56-.13-.13-.33-.19-.59-.19h-1.31v10.96h2.35v-6.81c.12-.32.24-.6.38-.85.13-.25.29-.46.46-.63.17-.16.36-.29.56-.37.36-.14.88-.16,1.27-.07.2.04.35.07.47.07.31,0,.51-.18.55-.5l.16-1.54-.12-.09c-.18-.12-.38-.22-.6-.27Z"/>
    <path class="cls-2" d="m134.3,134.21c-.14-.14-.31-.26-.49-.34-.38-.17-.83-.17-1.2,0-.18.09-.34.2-.48.35-.13.14-.24.31-.33.49-.08.19-.13.4-.13.62s.04.42.13.61c.08.19.19.35.33.49.14.14.3.25.48.34.19.09.39.13.6.13s.41-.04.6-.13c.18-.08.35-.2.49-.33.14-.14.26-.31.35-.5.08-.19.13-.4.13-.61s-.04-.43-.13-.62c-.08-.19-.2-.36-.34-.5Z"/>
    <rect class="cls-2" x="132.06" y="138.34" width="2.35" height="10.96"/>
    <path class="cls-2" d="m153.89,139.65c-.36-.47-.8-.84-1.3-1.09-.51-.25-1.08-.38-1.71-.38-.74,0-1.4.16-1.97.48-.38.21-.73.47-1.05.77v-5.83h-2.35v15.7h1.45c.41,0,.66-.23.71-.62l.04-.34c.27.28.56.51.88.69.49.28,1.09.42,1.81.42s1.35-.15,1.92-.43c.57-.29,1.06-.7,1.46-1.22.39-.52.7-1.14.91-1.86.21-.71.31-1.51.31-2.38,0-.82-.09-1.56-.28-2.21-.18-.66-.46-1.23-.81-1.69Zm-1.32,3.97c0,1.31-.24,2.29-.7,2.94-.45.63-1.09.93-1.95.93-.42,0-.81-.08-1.15-.25-.32-.15-.63-.42-.91-.8v-4.87c.32-.44.68-.78,1.05-1.02.38-.24.84-.37,1.35-.37.74,0,1.3.26,1.69.79.41.55.62,1.44.62,2.65Z"/>
    <path class="cls-2" d="m171.73,146.2c-.34.38-.72.69-1.12.91-.41.23-.85.35-1.33.35-.63,0-1.08-.18-1.37-.55-.31-.38-.46-.94-.46-1.66v-6.91h-2.35v6.91c0,.61.08,1.18.23,1.69.16.52.39.97.7,1.34.31.37.7.67,1.15.87.45.2.98.31,1.57.31.75,0,1.42-.16,2-.49.42-.23.81-.53,1.17-.87l.09.58c.02.21.11.37.25.48.13.09.28.14.46.14h1.36v-10.96h-2.35v7.86Z"/>
    <path class="cls-2" d="m184.5,140.32h4.6l-4.59,7.13c-.09.13-.16.26-.21.41-.05.15-.08.29-.08.41v1.04h7.56v-1.98h-4.71l4.57-7.06c.08-.12.15-.25.2-.4.06-.15.08-.31.08-.48v-1.05h-7.43v1.98Z"/>
    <path class="cls-2" d="m204.37,134.21c-.14-.14-.31-.26-.49-.34-.38-.17-.83-.17-1.2,0-.18.09-.34.2-.48.35-.13.14-.24.31-.32.49-.08.19-.13.4-.13.62s.04.42.13.61c.08.19.19.35.33.49.14.14.3.25.48.34.19.09.39.13.6.13s.41-.04.6-.13c.18-.08.35-.2.49-.33.15-.14.26-.31.34-.5.08-.19.13-.4.13-.61s-.04-.43-.13-.62c-.08-.19-.2-.36-.34-.5Z"/>
    <rect class="cls-2" x="202.13" y="138.34" width="2.35" height="10.96"/>
    <path class="cls-2" d="m223.71,139.72c-.44-.49-.98-.88-1.62-1.14-1.26-.53-2.97-.53-4.24,0-.64.27-1.18.65-1.63,1.14-.44.49-.79,1.09-1.02,1.78-.23.69-.35,1.46-.35,2.31s.12,1.63.35,2.31c.24.69.58,1.29,1.02,1.78.45.49.99.88,1.63,1.14.63.26,1.34.4,2.12.4s1.49-.13,2.12-.4c.63-.27,1.17-.65,1.62-1.14.44-.49.78-1.09,1.02-1.78.23-.69.35-1.47.35-2.31s-.12-1.62-.35-2.31c-.24-.69-.58-1.29-1.02-1.78Zm-1.03,4.1c0,.6-.06,1.13-.17,1.59-.11.45-.29.83-.51,1.14-.22.3-.49.53-.83.68-.67.32-1.72.31-2.39,0-.33-.16-.61-.38-.83-.68-.23-.31-.4-.69-.51-1.14-.12-.46-.17-1-.17-1.59s.06-1.13.17-1.59c.11-.45.29-.83.51-1.14.22-.3.5-.53.83-.69.34-.16.74-.24,1.2-.24s.85.08,1.18.24c.33.16.6.39.83.69.23.31.4.69.51,1.14.12.46.17,1,.17,1.59Z"/>
    <path class="cls-2" d="m243.43,139.36c-.31-.37-.7-.67-1.15-.87-.45-.2-.98-.31-1.57-.31-.75,0-1.43.16-2.01.49-.42.23-.81.52-1.17.87l-.08-.58c-.02-.21-.11-.37-.25-.48-.13-.09-.29-.14-.47-.14h-1.35v10.96h2.35v-7.85c.34-.39.71-.7,1.11-.92.41-.23.86-.35,1.34-.35.63,0,1.07.18,1.37.55.31.39.46.94.46,1.66v6.91h2.35v-6.91c0-.62-.08-1.18-.23-1.69-.16-.52-.39-.97-.7-1.34Z"/>
    <path class="cls-2" d="m263.14,146.54c-.23-.13-.54-.11-.89.11-.16.1-.35.21-.57.34-.22.12-.48.23-.8.33-.62.2-1.6.21-2.29-.08-.35-.14-.66-.36-.91-.65-.26-.29-.46-.67-.61-1.12-.13-.4-.21-.86-.24-1.38h6.57c.32,0,.48-.14.56-.26.09-.14.14-.37.14-.72,0-.78-.11-1.47-.34-2.08-.23-.61-.55-1.13-.95-1.55-.41-.42-.89-.75-1.45-.97-.55-.22-1.16-.33-1.8-.33-.78,0-1.49.14-2.11.42-.63.28-1.17.67-1.6,1.16-.43.49-.77,1.07-1,1.73-.23.65-.34,1.37-.34,2.12,0,.93.13,1.77.38,2.48.25.72.62,1.34,1.07,1.84.46.5,1.01.88,1.64,1.14.63.25,1.32.38,2.06.38.38,0,.78-.03,1.17-.1.39-.07.78-.17,1.15-.31.37-.14.72-.31,1.05-.53.33-.22.62-.48.87-.77l.13-.16-.64-.84c-.07-.09-.14-.16-.22-.2Zm-6.22-4.12c.14-.7.41-1.26.82-1.67.45-.47,1.06-.69,1.85-.69.37,0,.7.06.99.19.29.13.53.3.73.53.2.22.35.5.46.82.09.25.14.53.16.82h-5Z"/>
  </g>
  <path class="cls-2" d="m64.78,113.79h-18.83c.51,2.33,1.17,4.81,2.28,7.24h24.62c-3.45-1.02-6.92-3.14-8.07-7.24Z"/>
</svg>
